<mxfile host="65bd71144e">
    <diagram id="qZO7Jf-xJ2tgjr1JeyZJ" name="Page-1">
        <mxGraphModel dx="1783" dy="564" grid="1" gridSize="10" guides="1" tooltips="1" connect="1" arrows="1" fold="1" page="1" pageScale="1" pageWidth="827" pageHeight="1169" math="0" shadow="0">
            <root>
                <mxCell id="0"/>
                <mxCell id="1" parent="0"/>
                <mxCell id="apo7wF3TuB5XoEPh-mpj-12" style="edgeStyle=orthogonalEdgeStyle;rounded=0;orthogonalLoop=1;jettySize=auto;html=1;exitX=1;exitY=0.5;exitDx=0;exitDy=0;entryX=0;entryY=0.5;entryDx=0;entryDy=0;" parent="1" source="apo7wF3TuB5XoEPh-mpj-1" target="apo7wF3TuB5XoEPh-mpj-2" edge="1">
                    <mxGeometry relative="1" as="geometry"/>
                </mxCell>
                <mxCell id="apo7wF3TuB5XoEPh-mpj-14" style="edgeStyle=orthogonalEdgeStyle;rounded=0;orthogonalLoop=1;jettySize=auto;html=1;exitX=0.5;exitY=1;exitDx=0;exitDy=0;entryX=0.5;entryY=0;entryDx=0;entryDy=0;" parent="1" source="apo7wF3TuB5XoEPh-mpj-1" target="apo7wF3TuB5XoEPh-mpj-4" edge="1">
                    <mxGeometry relative="1" as="geometry"/>
                </mxCell>
                <mxCell id="apo7wF3TuB5XoEPh-mpj-20" style="edgeStyle=orthogonalEdgeStyle;rounded=0;orthogonalLoop=1;jettySize=auto;html=1;exitX=0;exitY=0.5;exitDx=0;exitDy=0;" parent="1" source="apo7wF3TuB5XoEPh-mpj-1" target="apo7wF3TuB5XoEPh-mpj-5" edge="1">
                    <mxGeometry relative="1" as="geometry"/>
                </mxCell>
                <mxCell id="apo7wF3TuB5XoEPh-mpj-1" value="Accueil" style="rounded=0;whiteSpace=wrap;html=1;fillColor=#dae8fc;strokeColor=#6c8ebf;" parent="1" vertex="1">
                    <mxGeometry x="350" y="250" width="120" height="60" as="geometry"/>
                </mxCell>
                <mxCell id="apo7wF3TuB5XoEPh-mpj-13" style="edgeStyle=orthogonalEdgeStyle;rounded=0;orthogonalLoop=1;jettySize=auto;html=1;exitX=0.5;exitY=1;exitDx=0;exitDy=0;entryX=0.5;entryY=0;entryDx=0;entryDy=0;" parent="1" source="apo7wF3TuB5XoEPh-mpj-2" target="apo7wF3TuB5XoEPh-mpj-3" edge="1">
                    <mxGeometry relative="1" as="geometry"/>
                </mxCell>
                <mxCell id="apo7wF3TuB5XoEPh-mpj-33" style="edgeStyle=orthogonalEdgeStyle;rounded=0;orthogonalLoop=1;jettySize=auto;html=1;exitX=1;exitY=0.5;exitDx=0;exitDy=0;entryX=0;entryY=0.5;entryDx=0;entryDy=0;fillColor=#fff2cc;strokeColor=#d6b656;" parent="1" source="apo7wF3TuB5XoEPh-mpj-2" target="apo7wF3TuB5XoEPh-mpj-29" edge="1">
                    <mxGeometry relative="1" as="geometry"/>
                </mxCell>
                <mxCell id="apo7wF3TuB5XoEPh-mpj-2" value="Connexion" style="rounded=0;whiteSpace=wrap;html=1;fillColor=#dae8fc;strokeColor=#6c8ebf;" parent="1" vertex="1">
                    <mxGeometry x="610" y="250" width="120" height="60" as="geometry"/>
                </mxCell>
                <mxCell id="apo7wF3TuB5XoEPh-mpj-35" style="edgeStyle=orthogonalEdgeStyle;rounded=0;orthogonalLoop=1;jettySize=auto;html=1;exitX=1;exitY=0.5;exitDx=0;exitDy=0;entryX=0;entryY=0.5;entryDx=0;entryDy=0;fillColor=#fff2cc;strokeColor=#d6b656;" parent="1" source="apo7wF3TuB5XoEPh-mpj-3" target="apo7wF3TuB5XoEPh-mpj-30" edge="1">
                    <mxGeometry relative="1" as="geometry"/>
                </mxCell>
                <mxCell id="apo7wF3TuB5XoEPh-mpj-3" value="Inscription" style="rounded=0;whiteSpace=wrap;html=1;fillColor=#dae8fc;strokeColor=#6c8ebf;" parent="1" vertex="1">
                    <mxGeometry x="610" y="350" width="120" height="60" as="geometry"/>
                </mxCell>
                <mxCell id="apo7wF3TuB5XoEPh-mpj-15" style="edgeStyle=orthogonalEdgeStyle;rounded=0;orthogonalLoop=1;jettySize=auto;html=1;exitX=0.5;exitY=1;exitDx=0;exitDy=0;entryX=0.5;entryY=0;entryDx=0;entryDy=0;" parent="1" source="apo7wF3TuB5XoEPh-mpj-4" target="apo7wF3TuB5XoEPh-mpj-10" edge="1">
                    <mxGeometry relative="1" as="geometry"/>
                </mxCell>
                <mxCell id="apo7wF3TuB5XoEPh-mpj-32" style="edgeStyle=orthogonalEdgeStyle;rounded=0;orthogonalLoop=1;jettySize=auto;html=1;exitX=0;exitY=0.5;exitDx=0;exitDy=0;entryX=1;entryY=0.5;entryDx=0;entryDy=0;fillColor=#fff2cc;strokeColor=#d6b656;" parent="1" source="apo7wF3TuB5XoEPh-mpj-4" target="apo7wF3TuB5XoEPh-mpj-31" edge="1">
                    <mxGeometry relative="1" as="geometry"/>
                </mxCell>
                <mxCell id="apo7wF3TuB5XoEPh-mpj-4" value="résultats" style="rounded=0;whiteSpace=wrap;html=1;fillColor=#dae8fc;strokeColor=#6c8ebf;" parent="1" vertex="1">
                    <mxGeometry x="350" y="360" width="120" height="70" as="geometry"/>
                </mxCell>
                <mxCell id="apo7wF3TuB5XoEPh-mpj-17" style="edgeStyle=orthogonalEdgeStyle;rounded=0;orthogonalLoop=1;jettySize=auto;html=1;exitX=0;exitY=0.5;exitDx=0;exitDy=0;" parent="1" source="apo7wF3TuB5XoEPh-mpj-5" target="apo7wF3TuB5XoEPh-mpj-6" edge="1">
                    <mxGeometry relative="1" as="geometry"/>
                </mxCell>
                <mxCell id="apo7wF3TuB5XoEPh-mpj-18" style="edgeStyle=orthogonalEdgeStyle;rounded=0;orthogonalLoop=1;jettySize=auto;html=1;exitX=0.5;exitY=0;exitDx=0;exitDy=0;entryX=1;entryY=0.5;entryDx=0;entryDy=0;" parent="1" source="apo7wF3TuB5XoEPh-mpj-5" target="apo7wF3TuB5XoEPh-mpj-8" edge="1">
                    <mxGeometry relative="1" as="geometry"/>
                </mxCell>
                <mxCell id="apo7wF3TuB5XoEPh-mpj-19" style="edgeStyle=orthogonalEdgeStyle;rounded=0;orthogonalLoop=1;jettySize=auto;html=1;exitX=0.5;exitY=1;exitDx=0;exitDy=0;entryX=1;entryY=0.5;entryDx=0;entryDy=0;" parent="1" source="apo7wF3TuB5XoEPh-mpj-5" target="apo7wF3TuB5XoEPh-mpj-7" edge="1">
                    <mxGeometry relative="1" as="geometry"/>
                </mxCell>
                <mxCell id="apo7wF3TuB5XoEPh-mpj-5" value="Profil" style="rounded=0;whiteSpace=wrap;html=1;fillColor=#dae8fc;strokeColor=#6c8ebf;" parent="1" vertex="1">
                    <mxGeometry x="240" y="267.5" width="50" height="25" as="geometry"/>
                </mxCell>
                <mxCell id="apo7wF3TuB5XoEPh-mpj-24" style="edgeStyle=orthogonalEdgeStyle;rounded=0;orthogonalLoop=1;jettySize=auto;html=1;exitX=0;exitY=0.5;exitDx=0;exitDy=0;fillColor=#fff2cc;strokeColor=#d6b656;" parent="1" source="apo7wF3TuB5XoEPh-mpj-6" target="apo7wF3TuB5XoEPh-mpj-21" edge="1">
                    <mxGeometry relative="1" as="geometry"/>
                </mxCell>
                <mxCell id="apo7wF3TuB5XoEPh-mpj-6" value="Gérer les ventes" style="rounded=0;whiteSpace=wrap;html=1;fillColor=#dae8fc;strokeColor=#6c8ebf;" parent="1" vertex="1">
                    <mxGeometry x="60" y="265" width="120" height="30" as="geometry"/>
                </mxCell>
                <mxCell id="apo7wF3TuB5XoEPh-mpj-28" style="edgeStyle=orthogonalEdgeStyle;rounded=0;orthogonalLoop=1;jettySize=auto;html=1;exitX=0;exitY=0.5;exitDx=0;exitDy=0;entryX=1;entryY=0.5;entryDx=0;entryDy=0;fillColor=#fff2cc;strokeColor=#d6b656;" parent="1" source="apo7wF3TuB5XoEPh-mpj-7" target="apo7wF3TuB5XoEPh-mpj-27" edge="1">
                    <mxGeometry relative="1" as="geometry"/>
                </mxCell>
                <mxCell id="apo7wF3TuB5XoEPh-mpj-7" value="Historique des achats" style="rounded=0;whiteSpace=wrap;html=1;fillColor=#dae8fc;strokeColor=#6c8ebf;" parent="1" vertex="1">
                    <mxGeometry x="55" y="320" width="125" height="30" as="geometry"/>
                </mxCell>
                <mxCell id="apo7wF3TuB5XoEPh-mpj-26" style="edgeStyle=orthogonalEdgeStyle;rounded=0;orthogonalLoop=1;jettySize=auto;html=1;exitX=0;exitY=0.5;exitDx=0;exitDy=0;entryX=1;entryY=0.5;entryDx=0;entryDy=0;fillColor=#fff2cc;strokeColor=#d6b656;" parent="1" source="apo7wF3TuB5XoEPh-mpj-8" target="apo7wF3TuB5XoEPh-mpj-25" edge="1">
                    <mxGeometry relative="1" as="geometry"/>
                </mxCell>
                <mxCell id="apo7wF3TuB5XoEPh-mpj-8" value="Paramètres utilisateurs" style="rounded=0;whiteSpace=wrap;html=1;fillColor=#dae8fc;strokeColor=#6c8ebf;" parent="1" vertex="1">
                    <mxGeometry x="50" y="200" width="140" height="30" as="geometry"/>
                </mxCell>
                <mxCell id="apo7wF3TuB5XoEPh-mpj-16" style="edgeStyle=orthogonalEdgeStyle;rounded=0;orthogonalLoop=1;jettySize=auto;html=1;exitX=1;exitY=0.5;exitDx=0;exitDy=0;" parent="1" source="apo7wF3TuB5XoEPh-mpj-10" target="apo7wF3TuB5XoEPh-mpj-11" edge="1">
                    <mxGeometry relative="1" as="geometry"/>
                </mxCell>
                <mxCell id="apo7wF3TuB5XoEPh-mpj-37" style="edgeStyle=orthogonalEdgeStyle;rounded=0;orthogonalLoop=1;jettySize=auto;html=1;exitX=0;exitY=0.5;exitDx=0;exitDy=0;entryX=1;entryY=0.5;entryDx=0;entryDy=0;fillColor=#fff2cc;strokeColor=#d6b656;" parent="1" source="apo7wF3TuB5XoEPh-mpj-10" target="apo7wF3TuB5XoEPh-mpj-36" edge="1">
                    <mxGeometry relative="1" as="geometry"/>
                </mxCell>
                <mxCell id="apo7wF3TuB5XoEPh-mpj-41" style="edgeStyle=orthogonalEdgeStyle;rounded=0;orthogonalLoop=1;jettySize=auto;html=1;exitX=0.5;exitY=1;exitDx=0;exitDy=0;entryX=1;entryY=0.5;entryDx=0;entryDy=0;fillColor=#fff2cc;strokeColor=#d6b656;" parent="1" source="apo7wF3TuB5XoEPh-mpj-10" target="apo7wF3TuB5XoEPh-mpj-40" edge="1">
                    <mxGeometry relative="1" as="geometry"/>
                </mxCell>
                <mxCell id="apo7wF3TuB5XoEPh-mpj-10" value="Page produit" style="rounded=0;whiteSpace=wrap;html=1;fillColor=#dae8fc;strokeColor=#6c8ebf;" parent="1" vertex="1">
                    <mxGeometry x="350" y="480" width="120" height="70" as="geometry"/>
                </mxCell>
                <mxCell id="apo7wF3TuB5XoEPh-mpj-39" style="edgeStyle=orthogonalEdgeStyle;rounded=0;orthogonalLoop=1;jettySize=auto;html=1;exitX=1;exitY=0.5;exitDx=0;exitDy=0;entryX=0;entryY=0.5;entryDx=0;entryDy=0;fillColor=#fff2cc;strokeColor=#d6b656;" parent="1" source="apo7wF3TuB5XoEPh-mpj-11" target="apo7wF3TuB5XoEPh-mpj-38" edge="1">
                    <mxGeometry relative="1" as="geometry"/>
                </mxCell>
                <mxCell id="apo7wF3TuB5XoEPh-mpj-43" style="edgeStyle=orthogonalEdgeStyle;rounded=0;orthogonalLoop=1;jettySize=auto;html=1;exitX=0.5;exitY=1;exitDx=0;exitDy=0;entryX=0;entryY=0.5;entryDx=0;entryDy=0;fillColor=#fff2cc;strokeColor=#d6b656;" parent="1" source="apo7wF3TuB5XoEPh-mpj-11" target="apo7wF3TuB5XoEPh-mpj-42" edge="1">
                    <mxGeometry relative="1" as="geometry"/>
                </mxCell>
                <mxCell id="apo7wF3TuB5XoEPh-mpj-11" value="Panier" style="rounded=0;whiteSpace=wrap;html=1;fillColor=#dae8fc;strokeColor=#6c8ebf;" parent="1" vertex="1">
                    <mxGeometry x="620" y="485" width="100" height="60" as="geometry"/>
                </mxCell>
                <mxCell id="apo7wF3TuB5XoEPh-mpj-21" value="CRUD product" style="rounded=1;whiteSpace=wrap;html=1;fillColor=#fff2cc;strokeColor=#d6b656;" parent="1" vertex="1">
                    <mxGeometry x="-60" y="260" width="80" height="40" as="geometry"/>
                </mxCell>
                <mxCell id="apo7wF3TuB5XoEPh-mpj-25" value="RUD&lt;br&gt;userdata" style="rounded=1;whiteSpace=wrap;html=1;fillColor=#fff2cc;strokeColor=#d6b656;" parent="1" vertex="1">
                    <mxGeometry x="-60" y="195" width="80" height="40" as="geometry"/>
                </mxCell>
                <mxCell id="apo7wF3TuB5XoEPh-mpj-27" value="R userdata / product" style="rounded=1;whiteSpace=wrap;html=1;fillColor=#fff2cc;strokeColor=#d6b656;" parent="1" vertex="1">
                    <mxGeometry x="-60" y="315" width="80" height="40" as="geometry"/>
                </mxCell>
                <mxCell id="apo7wF3TuB5XoEPh-mpj-29" value="R userdata" style="rounded=1;whiteSpace=wrap;html=1;fillColor=#fff2cc;strokeColor=#d6b656;" parent="1" vertex="1">
                    <mxGeometry x="760" y="260" width="80" height="40" as="geometry"/>
                </mxCell>
                <mxCell id="apo7wF3TuB5XoEPh-mpj-30" value="C userdata" style="rounded=1;whiteSpace=wrap;html=1;fillColor=#fff2cc;strokeColor=#d6b656;" parent="1" vertex="1">
                    <mxGeometry x="760" y="360" width="80" height="40" as="geometry"/>
                </mxCell>
                <mxCell id="apo7wF3TuB5XoEPh-mpj-31" value="R product" style="rounded=1;whiteSpace=wrap;html=1;fillColor=#fff2cc;strokeColor=#d6b656;" parent="1" vertex="1">
                    <mxGeometry x="220" y="375" width="80" height="40" as="geometry"/>
                </mxCell>
                <mxCell id="apo7wF3TuB5XoEPh-mpj-36" value="R product" style="rounded=1;whiteSpace=wrap;html=1;fillColor=#fff2cc;strokeColor=#d6b656;" parent="1" vertex="1">
                    <mxGeometry x="220" y="495" width="80" height="40" as="geometry"/>
                </mxCell>
                <mxCell id="apo7wF3TuB5XoEPh-mpj-38" value="RUD product" style="rounded=1;whiteSpace=wrap;html=1;fillColor=#fff2cc;strokeColor=#d6b656;" parent="1" vertex="1">
                    <mxGeometry x="760" y="495" width="80" height="40" as="geometry"/>
                </mxCell>
                <mxCell id="apo7wF3TuB5XoEPh-mpj-40" value="CRUD comments" style="rounded=1;whiteSpace=wrap;html=1;fillColor=#fff2cc;strokeColor=#d6b656;" parent="1" vertex="1">
                    <mxGeometry x="220" y="565" width="80" height="40" as="geometry"/>
                </mxCell>
                <mxCell id="apo7wF3TuB5XoEPh-mpj-42" value="U userdata" style="rounded=1;whiteSpace=wrap;html=1;fillColor=#fff2cc;strokeColor=#d6b656;" parent="1" vertex="1">
                    <mxGeometry x="760" y="565" width="80" height="40" as="geometry"/>
                </mxCell>
            </root>
        </mxGraphModel>
    </diagram>
</mxfile>